<svg xmlns="http://www.w3.org/2000/svg" xmlns:xlink="http://www.w3.org/1999/xlink" width="140" zoomAndPan="magnify" viewBox="0 0 104.88 44.999999" height="60" preserveAspectRatio="xMidYMid meet" version="1.0"><defs><g/><clipPath id="f8ce3ffcce"><path d="M 12 9.984375 L 23 9.984375 L 23 29 L 12 29 Z M 12 9.984375 " clip-rule="nonzero"/></clipPath><clipPath id="a01114ae64"><path d="M 1.164062 28 L 33.375 28 L 33.375 33.207031 L 1.164062 33.207031 Z M 1.164062 28 " clip-rule="nonzero"/></clipPath></defs><g fill="#202020" fill-opacity="1"><g transform="translate(33.376303, 28.443049)"><g><path d="M 6.1875 0.203125 C 5.226562 0.203125 4.367188 0.0390625 3.609375 -0.28125 C 2.847656 -0.613281 2.242188 -1.070312 1.796875 -1.65625 C 1.359375 -2.238281 1.117188 -2.914062 1.078125 -3.6875 L 3.21875 -3.6875 C 3.28125 -3.0625 3.570312 -2.546875 4.09375 -2.140625 C 4.625 -1.742188 5.316406 -1.546875 6.171875 -1.546875 C 6.960938 -1.546875 7.585938 -1.722656 8.046875 -2.078125 C 8.503906 -2.429688 8.734375 -2.875 8.734375 -3.40625 C 8.734375 -3.957031 8.488281 -4.363281 8 -4.625 C 7.507812 -4.894531 6.753906 -5.160156 5.734375 -5.421875 C 4.804688 -5.660156 4.046875 -5.90625 3.453125 -6.15625 C 2.867188 -6.40625 2.367188 -6.78125 1.953125 -7.28125 C 1.535156 -7.78125 1.328125 -8.429688 1.328125 -9.234375 C 1.328125 -9.867188 1.515625 -10.453125 1.890625 -10.984375 C 2.273438 -11.523438 2.816406 -11.953125 3.515625 -12.265625 C 4.222656 -12.578125 5.023438 -12.734375 5.921875 -12.734375 C 7.304688 -12.734375 8.425781 -12.378906 9.28125 -11.671875 C 10.132812 -10.972656 10.59375 -10.015625 10.65625 -8.796875 L 8.578125 -8.796875 C 8.523438 -9.453125 8.257812 -9.976562 7.78125 -10.375 C 7.300781 -10.769531 6.660156 -10.96875 5.859375 -10.96875 C 5.109375 -10.96875 4.507812 -10.804688 4.0625 -10.484375 C 3.625 -10.171875 3.40625 -9.753906 3.40625 -9.234375 C 3.40625 -8.828125 3.535156 -8.488281 3.796875 -8.21875 C 4.066406 -7.945312 4.40625 -7.734375 4.8125 -7.578125 C 5.21875 -7.421875 5.773438 -7.242188 6.484375 -7.046875 C 7.390625 -6.796875 8.125 -6.550781 8.6875 -6.3125 C 9.25 -6.082031 9.734375 -5.726562 10.140625 -5.25 C 10.546875 -4.78125 10.753906 -4.164062 10.765625 -3.40625 C 10.765625 -2.71875 10.570312 -2.097656 10.1875 -1.546875 C 9.8125 -1.003906 9.273438 -0.578125 8.578125 -0.265625 C 7.890625 0.046875 7.09375 0.203125 6.1875 0.203125 Z M 6.1875 0.203125 "/></g></g></g><g fill="#202020" fill-opacity="1"><g transform="translate(45.306049, 28.443049)"><g><path d="M 3.84375 -10.21875 C 4.25 -10.9375 4.859375 -11.535156 5.671875 -12.015625 C 6.492188 -12.492188 7.445312 -12.734375 8.53125 -12.734375 C 9.632812 -12.734375 10.640625 -12.460938 11.546875 -11.921875 C 12.460938 -11.390625 13.175781 -10.640625 13.6875 -9.671875 C 14.207031 -8.710938 14.46875 -7.59375 14.46875 -6.3125 C 14.46875 -5.039062 14.207031 -3.910156 13.6875 -2.921875 C 13.175781 -1.929688 12.460938 -1.160156 11.546875 -0.609375 C 10.640625 -0.0664062 9.632812 0.203125 8.53125 0.203125 C 7.457031 0.203125 6.515625 -0.0351562 5.703125 -0.515625 C 4.890625 -0.992188 4.269531 -1.59375 3.84375 -2.3125 L 3.84375 5.9375 L 1.765625 5.9375 L 1.765625 -12.53125 L 3.84375 -12.53125 Z M 12.34375 -6.3125 C 12.34375 -7.25 12.148438 -8.066406 11.765625 -8.765625 C 11.390625 -9.472656 10.878906 -10.007812 10.234375 -10.375 C 9.585938 -10.738281 8.875 -10.921875 8.09375 -10.921875 C 7.332031 -10.921875 6.625 -10.734375 5.96875 -10.359375 C 5.320312 -9.992188 4.804688 -9.457031 4.421875 -8.75 C 4.035156 -8.039062 3.84375 -7.21875 3.84375 -6.28125 C 3.84375 -5.34375 4.035156 -4.519531 4.421875 -3.8125 C 4.804688 -3.101562 5.320312 -2.5625 5.96875 -2.1875 C 6.625 -1.8125 7.332031 -1.625 8.09375 -1.625 C 8.875 -1.625 9.585938 -1.8125 10.234375 -2.1875 C 10.878906 -2.5625 11.390625 -3.101562 11.765625 -3.8125 C 12.148438 -4.519531 12.34375 -5.351562 12.34375 -6.3125 Z M 12.34375 -6.3125 "/></g></g></g><g fill="#202020" fill-opacity="1"><g transform="translate(60.755305, 28.443049)"><g><path d="M 3.84375 -16.921875 L 3.84375 0 L 1.765625 0 L 1.765625 -16.921875 Z M 3.84375 -16.921875 "/></g></g></g><g fill="#202020" fill-opacity="1"><g transform="translate(66.377374, 28.443049)"><g><path d="M 13.1875 -6.75 C 13.1875 -6.351562 13.164062 -5.929688 13.125 -5.484375 L 3.109375 -5.484375 C 3.179688 -4.253906 3.601562 -3.289062 4.375 -2.59375 C 5.144531 -1.894531 6.078125 -1.546875 7.171875 -1.546875 C 8.078125 -1.546875 8.828125 -1.753906 9.421875 -2.171875 C 10.023438 -2.597656 10.453125 -3.160156 10.703125 -3.859375 L 12.9375 -3.859375 C 12.601562 -2.660156 11.929688 -1.679688 10.921875 -0.921875 C 9.921875 -0.171875 8.671875 0.203125 7.171875 0.203125 C 5.984375 0.203125 4.921875 -0.0625 3.984375 -0.59375 C 3.046875 -1.125 2.3125 -1.878906 1.78125 -2.859375 C 1.25 -3.847656 0.984375 -4.988281 0.984375 -6.28125 C 0.984375 -7.582031 1.238281 -8.71875 1.75 -9.6875 C 2.269531 -10.664062 3 -11.414062 3.9375 -11.9375 C 4.875 -12.46875 5.953125 -12.734375 7.171875 -12.734375 C 8.359375 -12.734375 9.410156 -12.472656 10.328125 -11.953125 C 11.242188 -11.429688 11.945312 -10.71875 12.4375 -9.8125 C 12.9375 -8.90625 13.1875 -7.882812 13.1875 -6.75 Z M 11.046875 -7.171875 C 11.046875 -7.960938 10.867188 -8.644531 10.515625 -9.21875 C 10.160156 -9.789062 9.679688 -10.222656 9.078125 -10.515625 C 8.484375 -10.816406 7.820312 -10.96875 7.09375 -10.96875 C 6.039062 -10.96875 5.144531 -10.628906 4.40625 -9.953125 C 3.664062 -9.285156 3.238281 -8.359375 3.125 -7.171875 Z M 11.046875 -7.171875 "/></g></g></g><g fill="#202020" fill-opacity="1"><g transform="translate(80.546806, 28.443049)"><g><path d="M 7.859375 -12.75 C 9.390625 -12.75 10.625 -12.285156 11.5625 -11.359375 C 12.507812 -10.441406 12.984375 -9.117188 12.984375 -7.390625 L 12.984375 0 L 10.921875 0 L 10.921875 -7.09375 C 10.921875 -8.332031 10.609375 -9.285156 9.984375 -9.953125 C 9.359375 -10.617188 8.503906 -10.953125 7.421875 -10.953125 C 6.328125 -10.953125 5.457031 -10.609375 4.8125 -9.921875 C 4.164062 -9.234375 3.84375 -8.234375 3.84375 -6.921875 L 3.84375 0 L 1.765625 0 L 1.765625 -12.53125 L 3.84375 -12.53125 L 3.84375 -10.75 C 4.25 -11.382812 4.804688 -11.875 5.515625 -12.21875 C 6.222656 -12.570312 7.003906 -12.75 7.859375 -12.75 Z M 7.859375 -12.75 "/></g></g></g><g fill="#202020" fill-opacity="1"><g transform="translate(95.173318, 28.443049)"><g><path d="M 3.84375 -10.5 C 4.207031 -11.207031 4.726562 -11.757812 5.40625 -12.15625 C 6.082031 -12.550781 6.910156 -12.75 7.890625 -12.75 L 7.890625 -10.609375 L 7.34375 -10.609375 C 5.007812 -10.609375 3.84375 -9.34375 3.84375 -6.8125 L 3.84375 0 L 1.765625 0 L 1.765625 -12.53125 L 3.84375 -12.53125 Z M 3.84375 -10.5 "/></g></g></g><path fill="#ffd100" d="M 32.246094 28.847656 L 32.246094 24.355469 C 32.246094 19.433594 29.777344 15.152344 25.996094 12.640625 L 8.53125 12.640625 C 4.75 15.152344 2.28125 19.433594 2.28125 24.355469 L 2.28125 28.847656 L 32.246094 28.847656 " fill-opacity="1" fill-rule="nonzero"/><path fill="#202020" d="M 22.089844 10.632812 L 25.171875 11.402344 C 25.71875 11.542969 26.082031 12.074219 25.996094 12.640625 L 23.921875 28.292969 L 20.59375 28.847656 L 22.089844 10.632812 " fill-opacity="1" fill-rule="nonzero"/><path fill="#202020" d="M 12.4375 10.632812 L 9.355469 11.402344 C 8.808594 11.542969 8.445312 12.074219 8.53125 12.640625 L 10.605469 28.292969 L 13.933594 28.847656 L 12.4375 10.632812 " fill-opacity="1" fill-rule="nonzero"/><g clip-path="url(#f8ce3ffcce)"><path fill="#ffd100" d="M 13.378906 28.292969 L 12.34375 11.160156 C 12.304688 10.519531 12.808594 9.984375 13.449219 9.984375 L 21.078125 9.984375 C 21.71875 9.984375 22.226562 10.519531 22.1875 11.160156 L 21.148438 28.292969 L 13.378906 28.292969 " fill-opacity="1" fill-rule="nonzero"/></g><g clip-path="url(#a01114ae64)"><path fill="#202020" d="M 29.472656 33.289062 L 5.058594 33.289062 C 2.910156 33.289062 1.171875 31.550781 1.171875 29.40625 C 1.171875 28.789062 1.667969 28.292969 2.28125 28.292969 L 32.246094 28.292969 C 32.859375 28.292969 33.355469 28.789062 33.355469 29.40625 C 33.355469 31.550781 31.617188 33.289062 29.472656 33.289062 " fill-opacity="1" fill-rule="nonzero"/></g><path fill="#ffffff" d="M 16.710938 23.300781 C 16.617188 23.300781 16.519531 23.277344 16.433594 23.226562 C 16.167969 23.074219 16.074219 22.738281 16.226562 22.46875 L 17.972656 19.417969 L 15.601562 19.417969 C 15.402344 19.417969 15.21875 19.308594 15.121094 19.140625 C 15.019531 18.96875 15.019531 18.757812 15.117188 18.585938 L 17.339844 14.703125 C 17.488281 14.433594 17.828125 14.34375 18.09375 14.496094 C 18.359375 14.648438 18.453125 14.984375 18.300781 15.253906 L 16.554688 18.304688 L 18.929688 18.304688 C 19.125 18.304688 19.308594 18.414062 19.40625 18.582031 C 19.507812 18.753906 19.507812 18.964844 19.410156 19.136719 L 17.191406 23.019531 C 17.089844 23.199219 16.902344 23.300781 16.710938 23.300781 " fill-opacity="1" fill-rule="nonzero"/></svg>